<mxfile host="app.diagrams.net" agent="Mozilla/5.0 (Windows NT 10.0; Win64; x64) AppleWebKit/537.36 (KHTML, like Gecko) Chrome/131.0.0.0 Safari/537.36" version="28.2.4">
  <diagram name="Page-1" id="Xqczq6wrVTHD9t6NGqef">
    <mxGraphModel grid="1" page="1" gridSize="10" guides="1" tooltips="1" connect="1" arrows="1" fold="1" pageScale="1" pageWidth="850" pageHeight="1100" math="0" shadow="0">
      <root>
        <mxCell id="0" />
        <mxCell id="1" parent="0" />
        <mxCell id="NZcVKmljYOqUlQRNdTdD-1" value="Người dùng" style="shape=umlActor;verticalLabelPosition=bottom;verticalAlign=top;html=1;" vertex="1" parent="1">
          <mxGeometry x="260" y="300" width="30" height="60" as="geometry" />
        </mxCell>
        <mxCell id="NZcVKmljYOqUlQRNdTdD-2" value="" style="html=1;points=[[0,0,0,0,5],[0,1,0,0,-5],[1,0,0,0,5],[1,1,0,0,-5]];perimeter=orthogonalPerimeter;outlineConnect=0;targetShapes=umlLifeline;portConstraint=eastwest;newEdgeStyle={&quot;curved&quot;:0,&quot;rounded&quot;:0};" vertex="1" parent="1">
          <mxGeometry x="270" y="400" width="10" height="980" as="geometry" />
        </mxCell>
        <mxCell id="NZcVKmljYOqUlQRNdTdD-3" value="" style="shape=umlLifeline;perimeter=lifelinePerimeter;whiteSpace=wrap;html=1;container=1;dropTarget=0;collapsible=0;recursiveResize=0;outlineConnect=0;portConstraint=eastwest;newEdgeStyle={&quot;curved&quot;:0,&quot;rounded&quot;:0};participant=umlBoundary;" vertex="1" parent="1">
          <mxGeometry x="580" y="320" width="50" height="1060" as="geometry" />
        </mxCell>
        <mxCell id="NZcVKmljYOqUlQRNdTdD-4" value="" style="html=1;points=[[0,0,0,0,5],[0,1,0,0,-5],[1,0,0,0,5],[1,1,0,0,-5]];perimeter=orthogonalPerimeter;outlineConnect=0;targetShapes=umlLifeline;portConstraint=eastwest;newEdgeStyle={&quot;curved&quot;:0,&quot;rounded&quot;:0};" vertex="1" parent="NZcVKmljYOqUlQRNdTdD-3">
          <mxGeometry x="20" y="100" width="10" height="60" as="geometry" />
        </mxCell>
        <mxCell id="NZcVKmljYOqUlQRNdTdD-5" value="GDTrangChu" style="text;html=1;align=center;verticalAlign=middle;resizable=0;points=[];autosize=1;strokeColor=none;fillColor=none;" vertex="1" parent="1">
          <mxGeometry x="560" y="290" width="90" height="30" as="geometry" />
        </mxCell>
        <mxCell id="NZcVKmljYOqUlQRNdTdD-6" value="" style="endArrow=block;endFill=1;html=1;align=left;verticalAlign=top;rounded=0;" edge="1" parent="1">
          <mxGeometry x="-1" relative="1" as="geometry">
            <mxPoint x="280" y="430" as="sourcePoint" />
            <mxPoint x="600" y="430" as="targetPoint" />
          </mxGeometry>
        </mxCell>
        <mxCell id="NZcVKmljYOqUlQRNdTdD-7" value="1. Chọn chức nút chức năng hiển thị danh sách phát" style="text;html=1;align=center;verticalAlign=middle;resizable=0;points=[];autosize=1;strokeColor=none;fillColor=none;" vertex="1" parent="1">
          <mxGeometry x="280" y="400" width="300" height="30" as="geometry" />
        </mxCell>
        <mxCell id="NZcVKmljYOqUlQRNdTdD-8" value="" style="shape=umlLifeline;perimeter=lifelinePerimeter;whiteSpace=wrap;html=1;container=1;dropTarget=0;collapsible=0;recursiveResize=0;outlineConnect=0;portConstraint=eastwest;newEdgeStyle={&quot;curved&quot;:0,&quot;rounded&quot;:0};participant=umlBoundary;" vertex="1" parent="1">
          <mxGeometry x="915" y="320" width="50" height="1060" as="geometry" />
        </mxCell>
        <mxCell id="NZcVKmljYOqUlQRNdTdD-9" value="" style="html=1;points=[[0,0,0,0,5],[0,1,0,0,-5],[1,0,0,0,5],[1,1,0,0,-5]];perimeter=orthogonalPerimeter;outlineConnect=0;targetShapes=umlLifeline;portConstraint=eastwest;newEdgeStyle={&quot;curved&quot;:0,&quot;rounded&quot;:0};" vertex="1" parent="NZcVKmljYOqUlQRNdTdD-8">
          <mxGeometry x="20" y="110" width="10" height="120" as="geometry" />
        </mxCell>
        <mxCell id="NZcVKmljYOqUlQRNdTdD-10" value="" style="html=1;points=[[0,0,0,0,5],[0,1,0,0,-5],[1,0,0,0,5],[1,1,0,0,-5]];perimeter=orthogonalPerimeter;outlineConnect=0;targetShapes=umlLifeline;portConstraint=eastwest;newEdgeStyle={&quot;curved&quot;:0,&quot;rounded&quot;:0};" vertex="1" parent="NZcVKmljYOqUlQRNdTdD-8">
          <mxGeometry x="20" y="340" width="10" height="40" as="geometry" />
        </mxCell>
        <mxCell id="NZcVKmljYOqUlQRNdTdD-11" value="" style="html=1;points=[[0,0,0,0,5],[0,1,0,0,-5],[1,0,0,0,5],[1,1,0,0,-5]];perimeter=orthogonalPerimeter;outlineConnect=0;targetShapes=umlLifeline;portConstraint=eastwest;newEdgeStyle={&quot;curved&quot;:0,&quot;rounded&quot;:0};" vertex="1" parent="NZcVKmljYOqUlQRNdTdD-8">
          <mxGeometry x="20" y="440" width="10" height="40" as="geometry" />
        </mxCell>
        <mxCell id="NZcVKmljYOqUlQRNdTdD-12" value="GĐanhSachNhac" style="text;html=1;align=center;verticalAlign=middle;resizable=0;points=[];autosize=1;strokeColor=none;fillColor=none;" vertex="1" parent="1">
          <mxGeometry x="880" y="290" width="120" height="30" as="geometry" />
        </mxCell>
        <mxCell id="NZcVKmljYOqUlQRNdTdD-13" value="" style="endArrow=block;endFill=1;html=1;align=left;verticalAlign=top;rounded=0;" edge="1" parent="1" target="NZcVKmljYOqUlQRNdTdD-9">
          <mxGeometry x="-1" relative="1" as="geometry">
            <mxPoint x="610" y="450" as="sourcePoint" />
            <mxPoint x="930" y="450" as="targetPoint" />
          </mxGeometry>
        </mxCell>
        <mxCell id="NZcVKmljYOqUlQRNdTdD-14" value="2. Mở giao diện hiển thị các danh sách phát hiện có" style="text;html=1;align=center;verticalAlign=middle;resizable=0;points=[];autosize=1;strokeColor=none;fillColor=none;" vertex="1" parent="1">
          <mxGeometry x="610" y="420" width="300" height="30" as="geometry" />
        </mxCell>
        <mxCell id="NZcVKmljYOqUlQRNdTdD-15" value="" style="endArrow=block;endFill=1;html=1;align=left;verticalAlign=top;rounded=0;" edge="1" parent="1">
          <mxGeometry x="-1" relative="1" as="geometry">
            <mxPoint x="275.25" y="500" as="sourcePoint" />
            <mxPoint x="934.75" y="500" as="targetPoint" />
          </mxGeometry>
        </mxCell>
        <mxCell id="NZcVKmljYOqUlQRNdTdD-16" value="3. Chọn nút thêm" style="text;html=1;align=center;verticalAlign=middle;resizable=0;points=[];autosize=1;strokeColor=none;fillColor=none;" vertex="1" parent="1">
          <mxGeometry x="280" y="470" width="120" height="30" as="geometry" />
        </mxCell>
        <mxCell id="NZcVKmljYOqUlQRNdTdD-17" value="" style="shape=umlLifeline;perimeter=lifelinePerimeter;whiteSpace=wrap;html=1;container=1;dropTarget=0;collapsible=0;recursiveResize=0;outlineConnect=0;portConstraint=eastwest;newEdgeStyle={&quot;curved&quot;:0,&quot;rounded&quot;:0};participant=umlBoundary;" vertex="1" parent="1">
          <mxGeometry x="1210" y="320" width="50" height="1060" as="geometry" />
        </mxCell>
        <mxCell id="NZcVKmljYOqUlQRNdTdD-18" value="" style="html=1;points=[[0,0,0,0,5],[0,1,0,0,-5],[1,0,0,0,5],[1,1,0,0,-5]];perimeter=orthogonalPerimeter;outlineConnect=0;targetShapes=umlLifeline;portConstraint=eastwest;newEdgeStyle={&quot;curved&quot;:0,&quot;rounded&quot;:0};" vertex="1" parent="NZcVKmljYOqUlQRNdTdD-17">
          <mxGeometry x="20" y="190" width="10" height="180" as="geometry" />
        </mxCell>
        <mxCell id="NZcVKmljYOqUlQRNdTdD-19" value="GDTaoDanhSachNhac" style="text;html=1;align=center;verticalAlign=middle;resizable=0;points=[];autosize=1;strokeColor=none;fillColor=none;" vertex="1" parent="1">
          <mxGeometry x="1165" y="290" width="140" height="30" as="geometry" />
        </mxCell>
        <mxCell id="NZcVKmljYOqUlQRNdTdD-20" value="" style="endArrow=block;endFill=1;html=1;align=left;verticalAlign=top;rounded=0;" edge="1" parent="1" target="NZcVKmljYOqUlQRNdTdD-18">
          <mxGeometry x="-1" relative="1" as="geometry">
            <mxPoint x="945" y="530" as="sourcePoint" />
            <mxPoint x="1210" y="530" as="targetPoint" />
          </mxGeometry>
        </mxCell>
        <mxCell id="NZcVKmljYOqUlQRNdTdD-21" value="4. Mở giao diện tạo danh sách nhạc" style="text;html=1;align=center;verticalAlign=middle;resizable=0;points=[];autosize=1;strokeColor=none;fillColor=none;" vertex="1" parent="1">
          <mxGeometry x="950" y="500" width="210" height="30" as="geometry" />
        </mxCell>
        <mxCell id="NZcVKmljYOqUlQRNdTdD-22" value="" style="endArrow=block;endFill=1;html=1;align=left;verticalAlign=top;rounded=0;" edge="1" parent="1" target="NZcVKmljYOqUlQRNdTdD-18">
          <mxGeometry x="-1" relative="1" as="geometry">
            <mxPoint x="280" y="580" as="sourcePoint" />
            <mxPoint x="939.5" y="580" as="targetPoint" />
          </mxGeometry>
        </mxCell>
        <mxCell id="NZcVKmljYOqUlQRNdTdD-23" value="5. Điền thông tin của danh sách nhạc" style="text;html=1;align=center;verticalAlign=middle;resizable=0;points=[];autosize=1;strokeColor=none;fillColor=none;" vertex="1" parent="1">
          <mxGeometry x="280" y="548" width="220" height="30" as="geometry" />
        </mxCell>
        <mxCell id="NZcVKmljYOqUlQRNdTdD-24" value="" style="endArrow=block;endFill=1;html=1;align=left;verticalAlign=top;rounded=0;" edge="1" parent="1" target="NZcVKmljYOqUlQRNdTdD-18">
          <mxGeometry x="-1" relative="1" as="geometry">
            <mxPoint x="280" y="632" as="sourcePoint" />
            <mxPoint x="1210" y="632" as="targetPoint" />
          </mxGeometry>
        </mxCell>
        <mxCell id="NZcVKmljYOqUlQRNdTdD-25" value="6.1. Nhấn nút huỷ" style="text;html=1;align=center;verticalAlign=middle;resizable=0;points=[];autosize=1;strokeColor=none;fillColor=none;" vertex="1" parent="1">
          <mxGeometry x="330" y="600" width="120" height="30" as="geometry" />
        </mxCell>
        <mxCell id="NZcVKmljYOqUlQRNdTdD-26" value="" style="endArrow=block;endFill=1;html=1;align=left;verticalAlign=top;rounded=0;" edge="1" parent="1" source="NZcVKmljYOqUlQRNdTdD-18" target="NZcVKmljYOqUlQRNdTdD-10">
          <mxGeometry x="-1" relative="1" as="geometry">
            <mxPoint x="1210" y="680" as="sourcePoint" />
            <mxPoint x="945" y="680" as="targetPoint" />
            <Array as="points">
              <mxPoint x="1150" y="680" />
            </Array>
          </mxGeometry>
        </mxCell>
        <mxCell id="NZcVKmljYOqUlQRNdTdD-27" value="6.2. Mở giao diện hiển thị danh sách nhạc hiện có" style="text;html=1;align=center;verticalAlign=middle;resizable=0;points=[];autosize=1;strokeColor=none;fillColor=none;" vertex="1" parent="1">
          <mxGeometry x="940" y="650" width="290" height="30" as="geometry" />
        </mxCell>
        <mxCell id="NZcVKmljYOqUlQRNdTdD-28" value="alt" style="shape=umlFrame;whiteSpace=wrap;html=1;pointerEvents=0;" vertex="1" parent="1">
          <mxGeometry x="230" y="710" width="1280" height="200" as="geometry" />
        </mxCell>
        <mxCell id="NZcVKmljYOqUlQRNdTdD-29" value="" style="endArrow=block;endFill=1;html=1;align=left;verticalAlign=top;rounded=0;" edge="1" parent="1">
          <mxGeometry x="-1" relative="1" as="geometry">
            <mxPoint x="280" y="770" as="sourcePoint" />
            <mxPoint x="935" y="770" as="targetPoint" />
          </mxGeometry>
        </mxCell>
        <mxCell id="NZcVKmljYOqUlQRNdTdD-30" value="6. Nhấn nút xác nhận" style="text;html=1;align=center;verticalAlign=middle;resizable=0;points=[];autosize=1;strokeColor=none;fillColor=none;" vertex="1" parent="1">
          <mxGeometry x="290" y="740" width="140" height="30" as="geometry" />
        </mxCell>
        <mxCell id="NZcVKmljYOqUlQRNdTdD-31" value="" style="shape=umlLifeline;perimeter=lifelinePerimeter;whiteSpace=wrap;html=1;container=1;dropTarget=0;collapsible=0;recursiveResize=0;outlineConnect=0;portConstraint=eastwest;newEdgeStyle={&quot;curved&quot;:0,&quot;rounded&quot;:0};participant=umlBoundary;" vertex="1" parent="1">
          <mxGeometry x="1450" y="320" width="50" height="1060" as="geometry" />
        </mxCell>
        <mxCell id="NZcVKmljYOqUlQRNdTdD-32" value="" style="html=1;points=[[0,0,0,0,5],[0,1,0,0,-5],[1,0,0,0,5],[1,1,0,0,-5]];perimeter=orthogonalPerimeter;outlineConnect=0;targetShapes=umlLifeline;portConstraint=eastwest;newEdgeStyle={&quot;curved&quot;:0,&quot;rounded&quot;:0};" vertex="1" parent="NZcVKmljYOqUlQRNdTdD-31">
          <mxGeometry x="20" y="460" width="10" height="70" as="geometry" />
        </mxCell>
        <mxCell id="NZcVKmljYOqUlQRNdTdD-33" value="" style="html=1;points=[[0,0,0,0,5],[0,1,0,0,-5],[1,0,0,0,5],[1,1,0,0,-5]];perimeter=orthogonalPerimeter;outlineConnect=0;targetShapes=umlLifeline;portConstraint=eastwest;newEdgeStyle={&quot;curved&quot;:0,&quot;rounded&quot;:0};" vertex="1" parent="NZcVKmljYOqUlQRNdTdD-31">
          <mxGeometry x="20" y="800" width="10" height="110" as="geometry" />
        </mxCell>
        <mxCell id="NZcVKmljYOqUlQRNdTdD-34" value="GDXacNhan" style="text;html=1;align=center;verticalAlign=middle;resizable=0;points=[];autosize=1;strokeColor=none;fillColor=none;" vertex="1" parent="1">
          <mxGeometry x="1430" y="290" width="90" height="30" as="geometry" />
        </mxCell>
        <mxCell id="NZcVKmljYOqUlQRNdTdD-35" value="" style="endArrow=block;endFill=1;html=1;align=left;verticalAlign=top;rounded=0;" edge="1" parent="1" target="NZcVKmljYOqUlQRNdTdD-32">
          <mxGeometry x="-1" relative="1" as="geometry">
            <mxPoint x="945" y="790" as="sourcePoint" />
            <mxPoint x="1520" y="790" as="targetPoint" />
          </mxGeometry>
        </mxCell>
        <mxCell id="NZcVKmljYOqUlQRNdTdD-36" value="7. Hiển thị giao diện xác nhận" style="text;html=1;align=center;verticalAlign=middle;resizable=0;points=[];autosize=1;strokeColor=none;fillColor=none;" vertex="1" parent="1">
          <mxGeometry x="950" y="760" width="180" height="30" as="geometry" />
        </mxCell>
        <mxCell id="NZcVKmljYOqUlQRNdTdD-37" value="" style="endArrow=block;endFill=1;html=1;align=left;verticalAlign=top;rounded=0;" edge="1" parent="1" target="NZcVKmljYOqUlQRNdTdD-32">
          <mxGeometry x="-1" relative="1" as="geometry">
            <mxPoint x="280" y="830" as="sourcePoint" />
            <mxPoint x="1520" y="830" as="targetPoint" />
          </mxGeometry>
        </mxCell>
        <mxCell id="NZcVKmljYOqUlQRNdTdD-38" value="8.1. Nhấn nút huỷ" style="text;html=1;align=center;verticalAlign=middle;resizable=0;points=[];autosize=1;strokeColor=none;fillColor=none;" vertex="1" parent="1">
          <mxGeometry x="290" y="808" width="120" height="30" as="geometry" />
        </mxCell>
        <mxCell id="NZcVKmljYOqUlQRNdTdD-39" value="alt" style="shape=umlFrame;whiteSpace=wrap;html=1;pointerEvents=0;" vertex="1" parent="1">
          <mxGeometry x="240" y="880" width="1350" height="200" as="geometry" />
        </mxCell>
        <mxCell id="NZcVKmljYOqUlQRNdTdD-40" value="" style="html=1;points=[[0,0,0,0,5],[0,1,0,0,-5],[1,0,0,0,5],[1,1,0,0,-5]];perimeter=orthogonalPerimeter;outlineConnect=0;targetShapes=umlLifeline;portConstraint=eastwest;newEdgeStyle={&quot;curved&quot;:0,&quot;rounded&quot;:0};" vertex="1" parent="1">
          <mxGeometry x="1470" y="960" width="10" height="110" as="geometry" />
        </mxCell>
        <mxCell id="NZcVKmljYOqUlQRNdTdD-41" value="" style="endArrow=block;endFill=1;html=1;align=left;verticalAlign=top;rounded=0;" edge="1" parent="1">
          <mxGeometry x="-1" relative="1" as="geometry">
            <mxPoint x="280" y="972" as="sourcePoint" />
            <mxPoint x="1470" y="972" as="targetPoint" />
          </mxGeometry>
        </mxCell>
        <mxCell id="NZcVKmljYOqUlQRNdTdD-42" value="8. Nhấn nút đồng ý" style="text;html=1;align=center;verticalAlign=middle;resizable=0;points=[];autosize=1;strokeColor=none;fillColor=none;" vertex="1" parent="1">
          <mxGeometry x="290" y="950" width="120" height="30" as="geometry" />
        </mxCell>
        <mxCell id="NZcVKmljYOqUlQRNdTdD-43" value="" style="endArrow=block;endFill=1;html=1;align=left;verticalAlign=top;rounded=0;" edge="1" parent="1" target="NZcVKmljYOqUlQRNdTdD-40">
          <mxGeometry x="-1" relative="1" as="geometry">
            <mxPoint x="1480" y="980" as="sourcePoint" />
            <mxPoint x="1480" y="1000" as="targetPoint" />
            <Array as="points">
              <mxPoint x="1570" y="980" />
              <mxPoint x="1570" y="1030" />
              <mxPoint x="1530" y="1030" />
            </Array>
          </mxGeometry>
        </mxCell>
        <mxCell id="NZcVKmljYOqUlQRNdTdD-44" value="9. Kiểm tra dữ liệu" style="text;html=1;align=center;verticalAlign=middle;resizable=0;points=[];autosize=1;strokeColor=none;fillColor=none;" vertex="1" parent="1">
          <mxGeometry x="1480" y="950" width="120" height="30" as="geometry" />
        </mxCell>
        <mxCell id="NZcVKmljYOqUlQRNdTdD-45" value="" style="endArrow=block;endFill=1;html=1;align=left;verticalAlign=top;rounded=0;" edge="1" parent="1">
          <mxGeometry x="-1" relative="1" as="geometry">
            <mxPoint x="1470" y="1059" as="sourcePoint" />
            <mxPoint x="280" y="1059" as="targetPoint" />
          </mxGeometry>
        </mxCell>
        <mxCell id="NZcVKmljYOqUlQRNdTdD-46" value="9.1. Thông báo tạo danh sách phát không thành công" style="text;html=1;align=center;verticalAlign=middle;resizable=0;points=[];autosize=1;strokeColor=none;fillColor=none;" vertex="1" parent="1">
          <mxGeometry x="290" y="1018" width="310" height="30" as="geometry" />
        </mxCell>
        <mxCell id="NZcVKmljYOqUlQRNdTdD-47" value="" style="endArrow=block;endFill=1;html=1;align=left;verticalAlign=top;rounded=0;" edge="1" parent="1">
          <mxGeometry x="-1" relative="1" as="geometry">
            <mxPoint x="1470" y="1140" as="sourcePoint" />
            <mxPoint x="280" y="1140" as="targetPoint" />
          </mxGeometry>
        </mxCell>
        <mxCell id="NZcVKmljYOqUlQRNdTdD-48" value="10. Thông báo tạo danh sách phát thành công" style="text;html=1;align=center;verticalAlign=middle;resizable=0;points=[];autosize=1;strokeColor=none;fillColor=none;" vertex="1" parent="1">
          <mxGeometry x="310" y="1110" width="270" height="30" as="geometry" />
        </mxCell>
        <mxCell id="NZcVKmljYOqUlQRNdTdD-49" value="alt" style="shape=umlFrame;whiteSpace=wrap;html=1;pointerEvents=0;" vertex="1" parent="1">
          <mxGeometry x="250" y="1100" width="1730" height="200" as="geometry" />
        </mxCell>
        <mxCell id="NZcVKmljYOqUlQRNdTdD-50" value="" style="shape=umlLifeline;perimeter=lifelinePerimeter;whiteSpace=wrap;html=1;container=1;dropTarget=0;collapsible=0;recursiveResize=0;outlineConnect=0;portConstraint=eastwest;newEdgeStyle={&quot;curved&quot;:0,&quot;rounded&quot;:0};participant=umlEntity;" vertex="1" parent="1">
          <mxGeometry x="1710" y="320" width="40" height="1060" as="geometry" />
        </mxCell>
        <mxCell id="NZcVKmljYOqUlQRNdTdD-51" value="" style="html=1;points=[[0,0,0,0,5],[0,1,0,0,-5],[1,0,0,0,5],[1,1,0,0,-5]];perimeter=orthogonalPerimeter;outlineConnect=0;targetShapes=umlLifeline;portConstraint=eastwest;newEdgeStyle={&quot;curved&quot;:0,&quot;rounded&quot;:0};" vertex="1" parent="NZcVKmljYOqUlQRNdTdD-50">
          <mxGeometry x="15" y="820" width="10" height="80" as="geometry" />
        </mxCell>
        <mxCell id="NZcVKmljYOqUlQRNdTdD-52" value="Ctr_Album" style="text;html=1;align=center;verticalAlign=middle;resizable=0;points=[];autosize=1;strokeColor=none;fillColor=none;" vertex="1" parent="1">
          <mxGeometry x="1690" y="290" width="80" height="30" as="geometry" />
        </mxCell>
        <mxCell id="NZcVKmljYOqUlQRNdTdD-53" value="" style="shape=umlLifeline;perimeter=lifelinePerimeter;whiteSpace=wrap;html=1;container=1;dropTarget=0;collapsible=0;recursiveResize=0;outlineConnect=0;portConstraint=eastwest;newEdgeStyle={&quot;curved&quot;:0,&quot;rounded&quot;:0};participant=umlControl;" vertex="1" parent="1">
          <mxGeometry x="1930" y="330" width="40" height="1050" as="geometry" />
        </mxCell>
        <mxCell id="NZcVKmljYOqUlQRNdTdD-54" value="" style="html=1;points=[[0,0,0,0,5],[0,1,0,0,-5],[1,0,0,0,5],[1,1,0,0,-5]];perimeter=orthogonalPerimeter;outlineConnect=0;targetShapes=umlLifeline;portConstraint=eastwest;newEdgeStyle={&quot;curved&quot;:0,&quot;rounded&quot;:0};" vertex="1" parent="NZcVKmljYOqUlQRNdTdD-53">
          <mxGeometry x="15" y="830" width="10" height="60" as="geometry" />
        </mxCell>
        <mxCell id="NZcVKmljYOqUlQRNdTdD-55" value="E_Album" style="text;html=1;align=center;verticalAlign=middle;resizable=0;points=[];autosize=1;strokeColor=none;fillColor=none;" vertex="1" parent="1">
          <mxGeometry x="1915" y="290" width="70" height="30" as="geometry" />
        </mxCell>
        <mxCell id="NZcVKmljYOqUlQRNdTdD-56" value="" style="endArrow=block;endFill=1;html=1;align=left;verticalAlign=top;rounded=0;" edge="1" parent="1">
          <mxGeometry x="-1" relative="1" as="geometry">
            <mxPoint x="1477.5" y="1170" as="sourcePoint" />
            <mxPoint x="1722.5" y="1170" as="targetPoint" />
          </mxGeometry>
        </mxCell>
        <mxCell id="NZcVKmljYOqUlQRNdTdD-57" value="10.1. Gửi yêu cầu thêm 1 danh sách phát" style="text;html=1;align=center;verticalAlign=middle;resizable=0;points=[];autosize=1;strokeColor=none;fillColor=none;" vertex="1" parent="1">
          <mxGeometry x="1480" y="1140" width="240" height="30" as="geometry" />
        </mxCell>
        <mxCell id="NZcVKmljYOqUlQRNdTdD-58" value="" style="endArrow=block;endFill=1;html=1;align=left;verticalAlign=top;rounded=0;" edge="1" parent="1" source="NZcVKmljYOqUlQRNdTdD-51" target="NZcVKmljYOqUlQRNdTdD-53">
          <mxGeometry x="-1" relative="1" as="geometry">
            <mxPoint x="1740" y="1160" as="sourcePoint" />
            <mxPoint x="2025" y="1160" as="targetPoint" />
          </mxGeometry>
        </mxCell>
        <mxCell id="NZcVKmljYOqUlQRNdTdD-59" value="10.2. Thêm 1 danh sách bài hát mới" style="text;html=1;align=center;verticalAlign=middle;resizable=0;points=[];autosize=1;strokeColor=none;fillColor=none;" vertex="1" parent="1">
          <mxGeometry x="1730" y="1150" width="220" height="30" as="geometry" />
        </mxCell>
        <mxCell id="NZcVKmljYOqUlQRNdTdD-60" value="" style="endArrow=block;endFill=1;html=1;align=left;verticalAlign=top;rounded=0;" edge="1" parent="1">
          <mxGeometry x="-1" relative="1" as="geometry">
            <mxPoint x="1470" y="1210" as="sourcePoint" />
            <mxPoint x="945" y="1210" as="targetPoint" />
          </mxGeometry>
        </mxCell>
        <mxCell id="NZcVKmljYOqUlQRNdTdD-61" value="" style="html=1;points=[[0,0,0,0,5],[0,1,0,0,-5],[1,0,0,0,5],[1,1,0,0,-5]];perimeter=orthogonalPerimeter;outlineConnect=0;targetShapes=umlLifeline;portConstraint=eastwest;newEdgeStyle={&quot;curved&quot;:0,&quot;rounded&quot;:0};" vertex="1" parent="1">
          <mxGeometry x="935" y="1180" width="10" height="60" as="geometry" />
        </mxCell>
        <mxCell id="NZcVKmljYOqUlQRNdTdD-62" value="11. Mở giao diện hiển thị danh sách nhạc hiện có" style="text;html=1;align=center;verticalAlign=middle;resizable=0;points=[];autosize=1;strokeColor=none;fillColor=none;" vertex="1" parent="1">
          <mxGeometry x="950" y="1185" width="280" height="30" as="geometry" />
        </mxCell>
      </root>
    </mxGraphModel>
  </diagram>
</mxfile>
